HIERARCHY
ROOT Hips
{
	OFFSET 46.182800 2.606664 96.069199
	CHANNELS 6 Xposition Yposition Zposition Xrotation Yrotation Zrotation
	JOINT spine
	{
		OFFSET 0.000000 -0.467660 8.132492
		CHANNELS 3 Xrotation Yrotation Zrotation
		JOINT spine1
		{
			OFFSET 0.000000 -0.000002 10.349800
			CHANNELS 3 Xrotation Yrotation Zrotation
			JOINT spine2
			{
				OFFSET 0.000000 -0.000002 9.916992
				CHANNELS 3 Xrotation Yrotation Zrotation
				JOINT Neck
				{
					OFFSET 0.000000 -1.213904 25.461006
					CHANNELS 3 Xrotation Yrotation Zrotation
					JOINT Head
					{
						OFFSET 0.000000 -0.000001 7.692444
						CHANNELS 3 Xrotation Yrotation Zrotation
						End Site
						{
							OFFSET 0.000000 6.140627 18.619995
						}
					}
				}
				JOINT RightShoulder
				{
					OFFSET -4.175751 0.581443 10.709602
					CHANNELS 3 Xrotation Yrotation Zrotation
					JOINT RightArm
					{
						OFFSET 0.000000 -0.000002 14.046600
						CHANNELS 3 Xrotation Yrotation Zrotation
						JOINT RightArmRoll
						{
							OFFSET 0.000000 -0.000001 7.090988
							CHANNELS 3 Xrotation Yrotation Zrotation
							JOINT RightForeArm
							{
								OFFSET 0.000000 -0.000003 20.653503
								CHANNELS 3 Xrotation Yrotation Zrotation
								JOINT RightForeArmRoll
								{
									OFFSET 0.000000 -0.000001 7.957184
									CHANNELS 3 Xrotation Yrotation Zrotation
									JOINT RightHand
									{
										OFFSET 0.000000 -0.000003 15.968292
										CHANNELS 3 Xrotation Yrotation Zrotation
										End Site
										{
											OFFSET 0.000000 0.000000 0.100006
										}
									}
								}
							}
						}
					}
				}
				JOINT LeftShoulder
				{
					OFFSET 4.175751 0.581443 10.709602
					CHANNELS 3 Xrotation Yrotation Zrotation
					JOINT LeftArm
					{
						OFFSET 0.000000 -0.000002 14.046600
						CHANNELS 3 Xrotation Yrotation Zrotation
						JOINT LeftArmRoll
						{
							OFFSET 0.000000 -0.000001 7.090973
							CHANNELS 3 Xrotation Yrotation Zrotation
							JOINT LeftForeArm
							{
								OFFSET 0.000000 -0.000003 20.653503
								CHANNELS 3 Xrotation Yrotation Zrotation
								JOINT LeftForeArmRoll
								{
									OFFSET 0.000000 -0.000001 7.957184
									CHANNELS 3 Xrotation Yrotation Zrotation
									JOINT LeftHand
									{
										OFFSET 0.000000 -0.000003 15.968307
										CHANNELS 3 Xrotation Yrotation Zrotation
										End Site
										{
											OFFSET 0.000000 0.000000 0.100006
										}
									}
								}
							}
						}
					}
				}
			}
		}
	}
	JOINT RightUpLeg
	{
		OFFSET -7.208340 1.108840 -1.321823
		CHANNELS 3 Xrotation Yrotation Zrotation
		JOINT RightUpLegRoll
		{
			OFFSET 0.000000 -0.000003 18.723801
			CHANNELS 3 Xrotation Yrotation Zrotation
			JOINT RightLeg
			{
				OFFSET 0.000000 0.000004 -23.186600
				CHANNELS 3 Xrotation Yrotation Zrotation
				JOINT RightLegRoll
				{
					OFFSET 0.000000 -0.000004 23.262398
					CHANNELS 3 Xrotation Yrotation Zrotation
					JOINT RightFoot
					{
						OFFSET 0.000000 -0.000003 19.362099
						CHANNELS 3 Xrotation Yrotation Zrotation
						JOINT RightToeBase
						{
							OFFSET 0.000000 -0.000003 16.185699
							CHANNELS 3 Xrotation Yrotation Zrotation
							End Site
							{
								OFFSET 0.006859 0.903521 7.838623
							}
						}
					}
				}
			}
		}
	}
	JOINT LeftUpLeg
	{
		OFFSET 7.208340 1.108840 -1.321823
		CHANNELS 3 Xrotation Yrotation Zrotation
		JOINT LeftUpLegRoll
		{
			OFFSET 0.000000 -0.000003 18.723900
			CHANNELS 3 Xrotation Yrotation Zrotation
			JOINT LeftLeg
			{
				OFFSET 0.000000 -0.000004 23.186501
				CHANNELS 3 Xrotation Yrotation Zrotation
				JOINT LeftLegRoll
				{
					OFFSET 0.000000 -0.000004 23.477509
					CHANNELS 3 Xrotation Yrotation Zrotation
					JOINT LeftFoot
					{
						OFFSET 0.000000 -0.000003 19.147003
						CHANNELS 3 Xrotation Yrotation Zrotation
						JOINT LeftToeBase
						{
							OFFSET 0.000000 -0.000003 16.185699
							CHANNELS 3 Xrotation Yrotation Zrotation
							End Site
							{
								OFFSET -0.030746 0.903521 7.838623
							}
						}
					}
				}
			}
		}
	}
}
MOTION
Frames: 11
Frame Time: 0.041667
50.228596 -5.203638 95.865509 -3.029723 0.627252 0.367113 -0.698390 -0.352971 0.048842 2.593327 -0.703594 0.099304 4.238460 -0.702354 0.107726 14.099320 2.262406 -3.769990 -2.899721 -1.397279 -3.746740 -16.704998 -57.395835 -19.718812 -38.718812 -121.922374 -18.684411 -0.000003 -0.000001 -0.000009 0.065470 -8.472246 -0.864235 0.000001 0.000001 -3.047856 -5.000205 -7.998924 0.000157 -12.907020 58.316667 15.218944 -35.952801 118.803026 27.783341 -0.000002 0.000018 0.000013 0.080655 10.410193 0.829745 0.000003 -0.000015 3.036320 -5.000243 7.998786 -0.000162 -2.732108 -173.774028 3.370860 -179.999991 0.000005 -0.951003 166.575596 -1.948317 -0.771930 0.000002 0.000001 0.120522 71.416875 6.133585 4.056819 25.462523 -7.347698 0.008268 -0.895705 172.606899 -1.415824 -0.000020 -0.000005 -0.868938 -13.605219 0.386456 0.761630 0.000000 -0.000002 -0.181858 73.581601 -5.753823 -5.128967 25.456933 7.351882 -0.000000 
50.222298 -5.208406 95.864601 -3.022540 0.628182 0.366786 -0.699330 -0.352938 0.048082 2.593416 -0.703333 0.098478 4.238549 -0.702105 0.106898 14.088141 2.265533 -3.769106 -2.881938 -1.403404 -3.746123 -16.706598 -57.391334 -19.720652 -38.709363 -121.928111 -18.671744 -0.000003 -0.000001 -0.000007 0.065473 -8.469197 -0.864352 0.000003 0.000001 -3.047859 -5.000203 -7.998925 0.000156 -12.911937 58.312829 15.224628 -35.930801 118.804228 27.762677 -0.000000 0.000016 0.000013 0.080654 10.411391 0.829321 0.000003 -0.000015 3.036320 -5.000241 7.998784 -0.000162 -2.749426 -173.781118 3.364425 -179.999991 0.000005 -0.952000 166.549505 -1.944213 -0.771888 0.000001 0.000001 0.121956 71.434845 6.136668 4.047336 25.462527 -7.347699 0.008270 -0.907048 172.603921 -1.415987 -0.000019 -0.000005 -0.868938 -13.620616 0.385217 0.761634 0.000001 -0.000001 -0.181872 73.593144 -5.754647 -5.123892 25.456930 7.351882 -0.000002 
50.213596 -5.218447 95.861900 -3.015659 0.629037 0.366397 -0.700273 -0.352890 0.047314 2.593606 -0.703003 0.097684 4.238729 -0.701786 0.106100 14.076862 2.268730 -3.768234 -2.863941 -1.409827 -3.745523 -16.708296 -57.387031 -19.722613 -38.700706 -121.934135 -18.659249 -0.000004 -0.000001 -0.000009 0.065470 -8.465627 -0.864528 0.000000 0.000001 -3.047859 -5.000202 -7.998925 0.000155 -12.916705 58.308895 15.230125 -35.908780 118.805458 27.742278 -0.000001 0.000017 0.000014 0.080653 10.412794 0.828870 0.000003 -0.000015 3.036320 -5.000241 7.998784 -0.000162 -2.766280 -173.787183 3.358158 -179.999991 0.000005 -0.952001 166.523728 -1.940111 -0.771829 0.000001 0.000001 0.123338 71.452795 6.139611 4.038132 25.462522 -7.347698 0.008269 -0.917916 172.599932 -1.416134 -0.000019 -0.000005 -0.868938 -13.635916 0.383919 0.761638 0.000000 -0.000001 -0.181827 73.604646 -5.755406 -5.118913 25.456933 7.351882 -0.000002 
50.208397 -5.220157 95.861099 -3.008991 0.629838 0.365966 -0.701220 -0.352830 0.046538 2.593845 -0.702624 0.096913 4.238979 -0.701419 0.105325 14.065588 2.271985 -3.767364 -2.845789 -1.416442 -3.744924 -16.710022 -57.382721 -19.724615 -38.692694 -121.940378 -18.646900 -0.000003 -0.000000 -0.000006 0.065472 -8.461686 -0.864742 0.000002 0.000001 -3.047858 -5.000203 -7.998924 0.000155 -12.921284 58.304783 15.235403 -35.886774 118.806674 27.722075 -0.000002 0.000017 0.000013 0.080655 10.414293 0.828404 0.000003 -0.000015 3.036320 -5.000240 7.998785 -0.000162 -2.782835 -173.793276 3.352035 -179.999991 0.000005 -0.952997 166.498046 -1.936010 -0.771765 0.000001 0.000001 0.124683 71.470498 6.142505 4.029129 25.462530 -7.347699 0.008269 -0.928454 172.596954 -1.416299 -0.000019 -0.000005 -0.868938 -13.651014 0.382580 0.761640 0.000001 -0.000002 -0.181742 73.616161 -5.756134 -5.113926 25.456928 7.351882 -0.000001 
50.204494 -5.227858 95.862389 -3.002440 0.630611 0.365510 -0.702174 -0.352764 0.045759 2.594135 -0.702217 0.096154 4.239259 -0.701024 0.104562 14.054309 2.275269 -3.766500 -2.827551 -1.423176 -3.744325 -16.711798 -57.378500 -19.726672 -38.685140 -121.946785 -18.634645 -0.000003 -0.000000 -0.000006 0.065472 -8.457544 -0.864974 0.000001 -0.000000 -3.047860 -5.000206 -7.998924 0.000158 -12.925809 58.300575 15.240596 -35.864763 118.807903 27.701985 -0.000001 0.000017 0.000014 0.080654 10.415790 0.827928 0.000003 -0.000015 3.036321 -5.000240 7.998784 -0.000163 -2.799204 -173.799354 3.345997 -179.999991 0.000005 -0.953994 166.472460 -1.932894 -0.771930 0.000001 0.000001 0.126009 71.488312 6.145352 4.020014 25.462525 -7.347699 0.008269 -0.938804 172.593990 -1.416467 -0.000019 -0.000005 -0.868938 -13.666112 0.381218 0.761643 0.000001 -0.000001 -0.181633 73.627650 -5.756828 -5.109037 25.456930 7.351882 -0.000002 
50.201298 -5.230608 95.861298 -2.995914 0.631376 0.365047 -0.703123 -0.352695 0.044979 2.594425 -0.701803 0.095398 4.239558 -0.700622 0.103802 14.042933 2.278554 -3.765632 -2.809297 -1.429940 -3.743721 -16.713538 -57.374183 -19.728684 -38.678443 -121.952358 -18.623448 -0.000001 -0.000001 -0.000008 0.065472 -8.453346 -0.865220 0.000001 0.000001 -3.047861 -5.000206 -7.998924 0.000154 -12.930294 58.296368 15.245756 -35.842756 118.809146 27.681930 -0.000001 0.000017 0.000013 0.080654 10.417290 0.827453 0.000002 -0.000015 3.036321 -5.000242 7.998783 -0.000162 -2.815521 -173.806430 3.340036 -179.999991 0.000006 -0.953995 166.446874 -1.928795 -0.771855 0.000001 0.000001 0.127330 71.506022 6.148186 4.011099 25.462530 -7.347700 0.008270 -0.949104 172.590001 -1.416614 -0.000019 -0.000005 -0.868938 -13.681209 0.379849 0.761644 0.000002 -0.000002 -0.181520 73.639254 -5.757510 -5.103938 25.456928 7.351882 -0.000002 
50.196896 -5.222704 95.856201 -2.989331 0.632156 0.364597 -0.704070 -0.352630 0.044201 2.594705 -0.701403 0.094636 4.239838 -0.700233 0.103036 14.031655 2.281829 -3.764763 -2.791080 -1.436645 -3.743122 -16.715290 -57.369969 -19.730724 -38.670738 -121.958710 -18.611162 -0.000003 -0.000001 -0.000009 0.065474 -8.449256 -0.865447 0.000004 0.000001 -3.047860 -5.000204 -7.998924 0.000154 -12.934818 58.292161 15.250962 -35.820920 118.810430 27.661960 -0.000000 0.000017 0.000013 0.080655 10.418790 0.826978 0.000004 -0.000015 3.036321 -5.000242 7.998784 -0.000162 -2.831923 -173.812496 3.333982 -179.999991 0.000004 -0.955005 166.421288 -1.925666 -0.772012 0.000002 0.000001 0.128661 71.523726 6.151042 4.002189 25.462522 -7.347697 0.008269 -0.959497 172.587023 -1.416783 -0.000019 -0.000005 -0.868938 -13.696309 0.378494 0.761644 0.000000 -0.000001 -0.181416 73.650749 -5.758194 -5.099049 25.456930 7.351882 -0.000001 
50.190395 -5.230037 95.855804 -2.982601 0.632972 0.364177 -0.705017 -0.352574 0.043428 2.594934 -0.701039 0.093858 4.240058 -0.699880 0.102255 14.020378 2.285066 -3.763884 -2.772970 -1.443209 -3.742506 -16.717014 -57.365652 -19.732715 -38.662569 -121.964912 -18.598685 -0.000002 -0.000001 -0.000008 0.065470 -8.445416 -0.865651 -0.000000 0.000000 -3.047859 -5.000205 -7.998925 0.000156 -12.939470 58.288151 15.256315 -35.798917 118.811687 27.641721 -0.000001 0.000017 0.000013 0.080653 10.420190 0.826516 0.000003 -0.000015 3.036320 -5.000241 7.998785 -0.000162 -2.848569 -173.818588 3.327834 -179.999991 0.000005 -0.955006 166.395607 -1.921567 -0.771934 0.000001 0.000001 0.130017 71.541560 6.153913 3.993075 25.462525 -7.347698 0.008270 -0.970129 172.584045 -1.416941 -0.000019 -0.000005 -0.868938 -13.711507 0.377166 0.761645 0.000000 -0.000001 -0.181342 73.662347 -5.758894 -5.094056 25.456933 7.351881 -0.000001 
50.184196 -5.245268 95.855804 -2.975631 0.633849 0.363806 -0.705959 -0.352530 0.042662 2.595095 -0.700729 0.093055 4.240217 -0.699582 0.101448 14.009201 2.288234 -3.763000 -2.755037 -1.449534 -3.741877 -16.718666 -57.361254 -19.734616 -38.653632 -121.970813 -18.586162 -0.000003 -0.000000 -0.000007 0.065471 -8.442005 -0.865808 0.000002 0.000001 -3.047861 -5.000204 -7.998923 0.000156 -12.944249 58.284210 15.261832 -35.776739 118.812875 27.621104 -0.000000 0.000017 0.000014 0.080656 10.421590 0.826073 0.000002 -0.000015 3.036320 -5.000241 7.998783 -0.000162 -2.865563 -173.824681 3.321522 -179.999991 0.000005 -0.956003 166.369720 -1.917480 -0.771862 0.000001 0.000001 0.131414 71.559434 6.156894 3.983774 25.462527 -7.347700 0.008269 -0.981142 172.580084 -1.417082 -0.000020 -0.000004 -0.868938 -13.726804 0.375886 0.761644 0.000002 -0.000002 -0.181315 73.673883 -5.759677 -5.089073 25.456931 7.351882 -0.000001 
50.180798 -5.245472 95.854401 -2.968334 0.634808 0.363501 -0.706898 -0.352504 0.041906 2.595145 -0.700497 0.092216 4.240267 -0.699361 0.100607 13.998023 2.291334 -3.762099 -2.737333 -1.455538 -3.741224 -16.720266 -57.356759 -19.736453 -38.643899 -121.976442 -18.573561 -0.000004 -0.000000 -0.000005 0.065470 -8.439167 -0.865901 0.000001 0.000000 -3.047860 -5.000203 -7.998925 0.000155 -12.949249 58.280461 15.267619 -35.754739 118.814119 27.600352 -0.000001 0.000016 0.000013 0.080654 10.422792 0.825655 0.000002 -0.000015 3.036320 -5.000240 7.998784 -0.000162 -2.883046 -173.831757 3.315042 -179.999991 0.000005 -0.956002 166.343629 -1.913379 -0.771790 0.000001 0.000001 0.132866 71.577527 6.159964 3.974174 25.462523 -7.347698 0.008269 -0.992677 172.577106 -1.417240 -0.000019 -0.000005 -0.868938 -13.742303 0.374669 0.761643 0.000000 -0.000002 -0.181352 73.685338 -5.760516 -5.084107 25.456928 7.351881 -0.000001 
50.178898 -5.235881 95.850403 -2.960610 0.635872 0.363282 -0.707832 -0.352500 0.041164 2.595065 -0.700363 0.091332 4.240198 -0.699237 0.099721 13.986944 2.294317 -3.761179 -2.719928 -1.461143 -3.740568 -16.721811 -57.352265 -19.738229 -38.632083 -121.982479 -18.559656 -0.000005 -0.000000 -0.000008 0.065472 -8.437056 -0.865917 0.000002 0.000000 -3.047860 -5.000205 -7.998925 0.000156 -12.954541 58.277080 15.273754 -35.732575 118.815307 27.579061 -0.000001 0.000017 0.000014 0.080656 10.423792 0.825272 0.000004 -0.000015 3.036321 -5.000242 7.998783 -0.000163 -2.901164 -173.838847 3.308268 -179.999991 0.000005 -0.957000 166.317155 -1.909274 -0.771728 0.000001 0.000001 0.134392 71.595696 6.163174 3.964294 25.462525 -7.347698 0.008269 -1.004880 172.573131 -1.417375 -0.000019 -0.000005 -0.868938 -13.758100 0.373534 0.761641 0.000002 -0.000001 -0.181471 73.696799 -5.761430 -5.079049 25.456930 7.351882 -0.000001 
